<svg width="15" height="15" viewBox="0 0 15 15" fill="none" xmlns="http://www.w3.org/2000/svg">
<g clip-path="url(#clip0_362_199)">
<path fill-rule="evenodd" clip-rule="evenodd" d="M7.5 14.0625C3.87563 14.0625 0.9375 11.1234 0.9375 7.5C0.9375 3.87656 3.87563 0.9375 7.5 0.9375C11.1244 0.9375 14.0625 3.87656 14.0625 7.5C14.0625 11.1234 11.1244 14.0625 7.5 14.0625ZM7.5 0C3.35766 0 0 3.35625 0 7.5C0 11.6438 3.35766 15 7.5 15C11.6423 15 15 11.6438 15 7.5C15 3.35625 11.6423 0 7.5 0ZM10.3125 7.03125H7.96875V4.6875C7.96875 4.42969 7.75922 4.21875 7.5 4.21875C7.24078 4.21875 7.03125 4.42969 7.03125 4.6875V7.03125H4.6875C4.42828 7.03125 4.21875 7.24219 4.21875 7.5C4.21875 7.75781 4.42828 7.96875 4.6875 7.96875H7.03125V10.3125C7.03125 10.5703 7.24078 10.7812 7.5 10.7812C7.75922 10.7812 7.96875 10.5703 7.96875 10.3125V7.96875H10.3125C10.5717 7.96875 10.7812 7.75781 10.7812 7.5C10.7812 7.24219 10.5717 7.03125 10.3125 7.03125Z" fill="#FFF0C4"/>
</g>
<defs>
<clipPath id="clip0_362_199">
<rect width="15" height="15" fill="white"/>
</clipPath>
</defs>
</svg>
