<svg width="15" height="15" viewBox="0 0 15 15" fill="none" xmlns="http://www.w3.org/2000/svg">
<g clip-path="url(#clip0_362_205)">
<path d="M10.021 8.338C10.3905 8.338 10.69 8.03847 10.69 7.669C10.69 7.29953 10.3905 7 10.021 7H4.669C4.29952 7 4 7.29953 4 7.669C4 8.03847 4.29952 8.338 4.669 8.338H10.021Z" fill="#FFF0C4"/>
<path fill-rule="evenodd" clip-rule="evenodd" d="M7.5 0C3.35787 0 0 3.35787 0 7.5C0 11.6422 3.35787 15 7.5 15C11.6422 15 15 11.6422 15 7.5C15 3.35787 11.6422 0 7.5 0ZM1.04651 7.5C1.04651 3.93584 3.93584 1.04651 7.5 1.04651C11.0641 1.04651 13.9535 3.93584 13.9535 7.5C13.9535 11.0641 11.0641 13.9535 7.5 13.9535C3.93584 13.9535 1.04651 11.0641 1.04651 7.5Z" fill="#FFF0C4"/>
</g>
<defs>
<clipPath id="clip0_362_205">
<rect width="15" height="15" fill="white"/>
</clipPath>
</defs>
</svg>
