<svg width="20" height="20" viewBox="0 0 20 20" fill="none" xmlns="http://www.w3.org/2000/svg">
<path d="M6.5625 5V6.25C5.70125 6.25 5 6.95063 5 7.8125H3.75C3.75 6.26188 5.01188 5 6.5625 5Z" fill="#FFF0C4"/>
<path d="M13.4375 3.125C12.115 3.125 10.8794 3.67563 10 4.62875C9.12063 3.67563 7.885 3.125 6.5625 3.125C3.9775 3.125 1.875 5.20813 1.875 7.8125C1.875 13.4637 10 16.875 10 16.875C10 16.875 18.125 13.4637 18.125 7.8125C18.125 5.20813 16.0225 3.125 13.4375 3.125ZM10 15.4981C8.36125 14.7006 3.125 11.8363 3.125 7.8125C3.125 5.91688 4.66688 4.375 6.5625 4.375C7.53125 4.375 8.42625 4.76625 9.08125 5.47625L9.54063 5.97438H10.4594L10.9187 5.47625C11.5737 4.76625 12.4688 4.375 13.4375 4.375C15.3331 4.375 16.875 5.91688 16.875 7.8125C16.875 11.8363 11.6387 14.7006 10 15.4981Z" fill="#FFF0C4"/>
</svg>
