<svg width="15" height="15" viewBox="0 0 15 15" fill="none" xmlns="http://www.w3.org/2000/svg">
<g clip-path="url(#clip0_362_203)">
<path d="M7.49997 15C11.5956 15 15 11.6029 15 7.5C15 3.40442 11.5882 0 7.49263 0C3.38967 0 0 3.40442 0 7.5C0 11.6029 3.39704 15 7.49997 15ZM7.49997 13.75C4.02939 13.75 1.25732 10.9706 1.25732 7.5C1.25732 4.03676 4.02205 1.25001 7.49263 1.25001C10.9558 1.25001 13.7426 4.03676 13.75 7.5C13.7574 10.9706 10.9632 13.75 7.49997 13.75ZM4.98528 10.6176C5.14703 10.6176 5.29411 10.5515 5.40438 10.4338L7.49263 8.33824L9.58084 10.4338C9.69115 10.5441 9.83819 10.6176 10.0073 10.6176C10.3309 10.6176 10.5956 10.3456 10.5956 10.022C10.5956 9.85294 10.5294 9.71323 10.4191 9.60293L8.33084 7.51471L10.4264 5.41175C10.5441 5.28677 10.6029 5.16178 10.6029 4.99999C10.6029 4.66914 10.3382 4.41179 10.0147 4.41179C9.86028 4.41179 9.72789 4.46324 9.6029 4.58826L7.49263 6.69119L5.38967 4.5956C5.27939 4.47795 5.14703 4.42647 4.98528 4.42647C4.65439 4.42647 4.39704 4.67648 4.39704 5.00736C4.39704 5.16912 4.45587 5.30882 4.57351 5.41913L6.66173 7.51471L4.57351 9.6103C4.45587 9.71323 4.39704 9.86028 4.39704 10.022C4.39704 10.3456 4.65439 10.6176 4.98528 10.6176Z" fill="#FFF0C4"/>
</g>
<defs>
<clipPath id="clip0_362_203">
<rect width="15" height="15" fill="white"/>
</clipPath>
</defs>
</svg>
