<svg width="51" height="30" viewBox="0 0 51 30" fill="none" xmlns="http://www.w3.org/2000/svg">
<path d="M49.3147 6.9571L39.0118 2.37059C38.7102 2.11326 38.3351 1.93431 37.9158 1.87719L37.8988 1.87294L37.1446 1.53884C36.5694 1.28587 35.9463 1.29782 35.4156 1.52688L27.4254 0.401253C26.9884 0.0911641 26.4422 -0.0597298 25.8719 0.0219922L25.2968 0.103813L24.7258 0.0219922C24.1555 -0.0598286 23.6086 0.0910653 23.173 0.401253L15.182 1.52688C14.6477 1.29782 14.0239 1.28162 13.453 1.53884L12.6989 1.87294L12.6826 1.87719C12.2583 1.93856 11.8799 2.11326 11.5775 2.37483L1.28308 6.9571C0.1947 7.44209 -0.298596 8.71852 0.186992 9.81104L8.60584 28.7201C9.09499 29.8084 10.3673 30.2977 11.4598 29.8127L19.6628 26.1594L25.3009 25.3686L30.9356 26.1594L39.1386 29.8127C40.2269 30.2977 41.5027 29.8084 41.9877 28.7201L50.4072 9.80679C50.8922 8.71852 50.403 7.44209 49.3147 6.9571ZM28.253 1.58746L34.3887 2.44806C34.3521 2.50942 34.3196 2.57 34.2908 2.63561L30.7482 10.5941C30.4951 10.0231 30.3034 9.5051 30.2385 9.15835C30.2258 9.09343 30.2096 9.06033 30.1807 9.05687C30.1482 9.05262 30.1278 9.08147 30.0997 9.1379C29.977 9.38247 29.7452 9.70887 29.4639 10.0676C29.1904 10.4066 28.8726 10.7731 28.5426 11.1277C27.8167 11.9108 27.0379 12.6403 26.6466 12.8729L26.61 12.9173L26.6347 12.9751C27.03 13.3987 27.8125 14.7682 28.3553 15.9629L25.872 21.5447C25.4597 22.4701 25.7536 23.5296 26.5205 24.1252C26.6551 24.231 26.8059 24.3212 26.9688 24.3945L27.417 24.5939L25.301 24.2965L24.0782 24.1252L22.2187 23.8645L21.3912 23.7461C20.788 23.6608 20.372 23.106 20.4538 22.5069L21.1383 17.6265L22.2308 9.87241L23.3361 2.00773C23.3685 1.77086 23.4749 1.56295 23.6299 1.40435C23.866 1.15553 24.2129 1.02094 24.5752 1.07025L25.297 1.17183L26.9689 1.40445L28.253 1.58746ZM11.0277 28.8463C10.473 29.0909 9.82446 28.8422 9.57563 28.2881L1.15698 9.37901C0.912411 8.82425 1.16113 8.17225 1.7159 7.92768L10.8276 3.86698C10.8156 4.01362 10.824 4.16442 10.8438 4.31531L11.9897 12.4613C11.4844 12.233 11.0439 12.0123 10.7788 11.7797C10.738 11.743 10.7175 11.7353 10.7055 11.743C10.6929 11.7515 10.6809 11.7677 10.6809 11.8248C10.6731 12.665 9.94719 14.2383 9.64115 15.5267C9.35992 16.7137 9.6454 18.0585 10.8112 18.4054C11.5048 18.6133 12.3238 18.2708 12.7193 17.6596L13.7223 24.8146C13.8775 25.9071 14.8269 26.6937 15.9074 26.6733L11.0277 28.8463ZM19.3767 25.1283L16.0139 25.6013C15.4141 25.6866 14.8601 25.2665 14.7741 24.6673L14.0728 19.6693L13.7923 17.6914L13.7225 17.1987L13.1269 12.9583L11.8921 4.16807C11.847 3.82972 11.9576 3.50412 12.1733 3.2715C12.3369 3.0883 12.5646 2.96141 12.8296 2.92475L13.0008 2.90084L14.9744 2.62306L16.2059 2.45181L22.3416 1.58766C22.317 1.67788 22.2965 1.7675 22.2838 1.86118L21.2568 9.17901C20.9961 9.10153 20.7147 9.07327 20.4251 9.11349C19.3769 9.26083 18.6475 10.2349 18.7948 11.2788C18.8555 11.7108 19.0556 12.0901 19.3446 12.3756C19.2389 12.3714 19.1367 12.3756 19.031 12.3918C17.9871 12.5383 17.2534 13.5089 17.4 14.557C17.5473 15.6045 18.5214 16.3347 19.5646 16.1874C19.8381 16.1508 20.0911 16.0527 20.3111 15.9146L19.406 22.3563C19.2713 23.3023 19.7732 24.191 20.5845 24.5907C20.7881 24.6964 21.008 24.7655 21.2449 24.7986L21.4895 24.8311L19.3767 25.1283ZM49.4408 9.37901L41.0214 28.2881C40.7733 28.8422 40.1206 29.0909 39.5666 28.8463L34.6862 26.6733L31.2168 25.1283L30.0101 24.5905L28.3749 23.8646L27.4007 23.4283C26.8461 23.1795 26.5971 22.531 26.8425 21.977L28.8886 17.3779L29.2925 16.4728L30.108 14.6423L31.3549 11.8334L35.2611 3.06369C35.3422 2.88038 35.4691 2.72959 35.6242 2.62316C35.9293 2.39904 36.3417 2.34193 36.7125 2.50972L37.5886 2.90094L38.4203 3.26745L39.7702 3.87083L48.8825 7.92798C49.4367 8.17225 49.6854 8.82425 49.4408 9.37901Z" fill="#FFF0C4"/>
<path d="M39.0775 13.57C39.2686 12.3753 38.164 11.2383 36.8593 11.5759C35.6118 11.8981 35.033 13.3945 35.4158 14.9684C35.7668 16.4197 36.607 18.0465 36.6352 18.927L36.6676 18.9841L36.7331 18.9679C37.4055 18.4013 39.1755 17.9367 40.4921 17.2269C41.9153 16.4565 42.6406 15.0299 42.0457 13.8838C41.4218 12.6889 39.8395 12.6282 39.0775 13.57Z" fill="#FFF0C4"/>
<path d="M36.3051 7.76396L36.3171 7.79292L36.3454 7.78442C36.6513 7.52789 37.4541 7.31988 38.0497 6.99773C38.694 6.64674 39.0245 6.00245 38.7552 5.48099C38.4697 4.94312 37.7522 4.91427 37.4096 5.34205C37.4956 4.80004 36.9937 4.28194 36.4031 4.43708C35.8357 4.58442 35.5748 5.26102 35.7504 5.97438C35.9098 6.63053 36.2883 7.3686 36.3051 7.76396Z" fill="#FFF0C4"/>
<path d="M39.4398 24.7369C39.5258 24.1941 39.0246 23.6811 38.4333 23.8319C37.8708 23.9785 37.6099 24.6551 37.7813 25.3685C37.9399 26.029 38.3191 26.7627 38.3352 27.1623L38.3472 27.187L38.3761 27.1785C38.6821 26.9262 39.4849 26.714 40.0804 26.3919C40.7282 26.0452 41.0546 25.3974 40.786 24.8793C40.5041 24.3372 39.7866 24.3084 39.4398 24.7369Z" fill="#FFF0C4"/>
<path d="M5.06328 9.57161C4.62275 9.33119 3.99823 9.13671 3.75998 8.92594L3.73172 8.9126L3.72193 8.94353C3.71976 9.26073 3.44623 9.85492 3.33002 10.3434C3.22291 10.7909 3.33141 11.2991 3.77273 11.4303C4.0674 11.519 4.42265 11.3429 4.54172 11.0559C4.66505 11.383 4.75675 11.71 4.7779 12.0089L5.33256 11.7615C5.12465 11.5459 4.94282 11.2596 4.78205 10.9488C5.07534 11.0517 5.44323 10.9065 5.57496 10.6281C5.77239 10.2123 5.46784 9.79148 5.06328 9.57161Z" fill="#FFF0C4"/>
<path d="M15.6616 5.38236C15.6171 5.38869 15.5734 5.39857 15.5311 5.41131C15.6171 5.25973 15.6552 5.07929 15.6283 4.89322C15.5649 4.4435 15.1483 4.12778 14.6979 4.19122C14.2468 4.25456 13.9318 4.67325 13.9944 5.12306C14.0205 5.30914 14.1072 5.47199 14.2313 5.59383C14.1876 5.59314 14.1431 5.5959 14.0981 5.60223C13.6477 5.66567 13.3326 6.08298 13.3961 6.53339C13.4595 6.98449 13.8775 7.29883 14.3279 7.23608C14.5795 7.20011 14.7889 7.05356 14.9136 6.85336C14.9383 7.21641 14.9306 7.56662 14.8657 7.87404L15.5501 7.7774C15.4034 7.50041 15.2991 7.16552 15.2223 6.80968C15.3978 6.96828 15.6395 7.05139 15.8912 7.01621C16.3416 6.95277 16.6566 6.53477 16.5939 6.08367C16.5307 5.63405 16.1128 5.31892 15.6616 5.38236Z" fill="#FFF0C4"/>
<path d="M26.0185 2.77637L25.9839 2.81155C25.7711 3.23794 24.8237 4.22553 24.4981 4.41931L24.4812 4.43976L24.4918 4.46368C24.7519 4.74076 25.389 5.95088 25.4772 6.41828L25.5011 6.46265L25.5363 6.42668C25.7499 6.00098 26.6965 5.0134 27.0221 4.81892L27.039 4.79916L27.0277 4.77515C26.769 4.49885 26.1312 3.28864 26.043 2.81985L26.0185 2.77637Z" fill="#FFF0C4"/>
</svg>
